<?xml version="1.0" ?><svg enable-background="new 0 0 64 64" id="Filled_Outline_1_" version="1.1" viewBox="0 0 64 64" xml:space="preserve" xmlns="http://www.w3.org/2000/svg" xmlns:xlink="http://www.w3.org/1999/xlink"><title/><desc/><g><g><path d="M59,34c0,14.92-8.5,27-19,27c-2.86,0-5.57-0.9-8-2.51C29.57,60.1,26.86,61,24,61C13.5,61,5,48.92,5,34    c0-10.49,8.51-19,19-19c2.86,0,5.57,0.63,8,1.77c2.43-1.14,5.14-1.77,8-1.77C50.49,15,59,23.51,59,34z" fill="#D81406"/><path d="M59,34c0,14.92-8.5,27-19,27c-2.86,0-5.57-0.9-8-2.51C29.57,60.1,26.86,61,24,61C13.5,61,5,48.92,5,34    c0-10.49,8.51-19,19-19c2.86,0,5.57,0.63,8,1.77c2.43-1.14,5.14-1.77,8-1.77C50.49,15,59,23.51,59,34z" fill="#D81406"/><path d="M59,34c0,14.92-8.5,27-19,27c-2.86,0-5.57-0.9-8-2.51C29.57,60.1,26.86,61,24,61C13.5,61,5,48.92,5,34    c0-10.49,8.51-19,19-19c2.86,0,5.57,0.63,8,1.77c2.43-1.14,5.14-1.77,8-1.77C50.49,15,59,23.51,59,34z" fill="#EB2335"/><path d="M38,19c0,2.76-2.24,5-5,5s-5-2.24-5-5c0-1.25,0.46-2.39,1.22-3.27c0.96,0.27,1.89,0.62,2.78,1.04    c1.39-0.65,2.86-1.13,4.41-1.42C37.39,16.26,38,17.56,38,19z" fill="#EB2335"/><path d="M57.16,45.62C54.1,54.72,47.57,61,40,61c-2.86,0-5.57-0.9-8-2.51C29.57,60.1,26.86,61,24,61    C13.5,61,5,48.92,5,34c0-6.03,2.81-11.4,7.19-14.87C10.78,22.16,10,25.5,10,29c0,13.81,12.09,25,27,25    C45.02,54,52.22,50.76,57.16,45.62z M36.41,15.35c-1.55,0.29-3.02,0.77-4.41,1.42c-0.89-0.42-1.82-0.77-2.78-1.04    C28.46,16.61,28,17.75,28,19c0,2.76,2.24,5,5,5s5-2.24,5-5C38,17.56,37.39,16.26,36.41,15.35z" fill="#C12034"/><path d="M22,11c4.679,0,9.41,3.571,9.949,8.136C32.008,19.634,32.445,20,32.947,20h0    c0.594,0,1.056-0.509,1.015-1.101C33.496,12.234,28.809,7,22,7V11z" fill="#8C6239"/><path d="M41,3h-2c-4.418,0-8,3.582-8,8v0h2C37.418,11,41,7.418,41,3L41,3z" fill="#009245"/><path d="M40,24c0-2,2-5,7-4s8,8,5,13c-2.301,3.835-2-4-6-6C44,26,40,28.123,40,24z" fill="#FF6F77"/><ellipse cx="38" cy="7" fill="#39B54A" rx="3" ry="1.5" transform="matrix(0.7071 -0.7071 0.7071 0.7071 6.1802 28.9203)"/></g><path d="M40,14c-1.99,0-3.94,0.304-5.814,0.875c-0.346-1.035-0.806-1.991-1.348-2.875H33c4.962,0,9-4.038,9-9   c0-0.552-0.448-1-1-1h-2c-4.257,0-7.826,2.975-8.756,6.953C28.04,7.081,25.203,6,22,6c-0.552,0-1,0.448-1,1v4c0,0.552,0.448,1,1,1   c2.31,0,4.578,0.977,6.261,2.473C26.871,14.17,25.45,14,24,14C12.972,14,4,22.972,4,34c0,15.439,8.972,28,20,28   c2.79,0,5.478-0.782,8-2.324C34.522,61.218,37.21,62,40,62c11.028,0,20-12.561,20-28C60,22.972,51.028,14,40,14z M39,4h0.929   c-0.487,3.388-3.408,6-6.929,6h-0.929C32.558,6.612,35.479,4,39,4z M23,8.042c5.499,0.472,9.537,4.834,9.942,10.976   c-0.541-4.583-4.979-8.499-9.942-8.971V8.042z M40,60c-2.595,0-5.101-0.789-7.448-2.343c-0.335-0.222-0.77-0.222-1.104,0   C29.101,59.211,26.595,60,24,60C14.075,60,6,48.336,6,34c0-9.925,8.075-18,18-18c2.193,0,4.321,0.399,6.336,1.164   c0.32,0.667,0.535,1.37,0.62,2.089C31.073,20.249,31.929,21,32.947,21c0.556,0,1.092-0.233,1.472-0.641   c0.383-0.411,0.581-0.969,0.541-1.53c-0.049-0.695-0.151-1.363-0.278-2.017C36.392,16.281,38.178,16,40,16c9.925,0,18,8.075,18,18   C58,48.336,49.925,60,40,60z M37,19h2c0,0.834-0.168,1.642-0.5,2.4L36.667,20.6C36.888,20.095,37,19.557,37,19z M35.4,22.201   l1.201,1.599C35.556,24.585,34.311,25,33,25c-3.309,0-6-2.691-6-6h2c0,2.206,1.794,4,4,4C33.874,23,34.704,22.724,35.4,22.201z" fill="#28284B"/></g></svg>