<?xml version="1.0" ?><svg xmlns="http://www.w3.org/2000/svg" xmlns:xlink="http://www.w3.org/1999/xlink" version="1.1" viewBox="0 0 512 512" style="enable-background:new 0 0 512 512;" xml:space="preserve"><g id="_x31_7_x2C__Cowboy_x2C__ranch_x2C__sheriff_x2C__wild_west_x2C__bandit_x2C__western"><g><g><g><g><path style="fill:#404040;" d="M75.304,279.444c13.382,34.735,33.371,65.235,58.541,89.011       c63.03,59.585,146.927,65.997,213.746,23.811c0.063-0.043,0.128-0.085,0.193-0.126c41.442-26.171,71.69-67.727,89.089-113.148       C322.271,338.541,189.162,338.696,75.304,279.444z"/><path style="fill:#E6A441;" d="M54.328,267.748c-5.486-3.266-10.934-6.671-16.226-10.162C22.156,247.054,1,258.446,1,277.518       c0,17.712,8.38,34.766,22.416,45.621c22.084,17.069,55.146,38.632,97.606,55.096C90.894,349.122,67.9,311.031,54.328,267.748z"/><path style="fill:#404040;" d="M409.033,209.684l-5.608-72.878c-1.902-24.771-22.853-44.174-47.698-44.174H156.273       c-24.845,0-45.796,19.403-47.698,44.173l-5.632,73.246C200.852,253.858,310.844,253.598,409.033,209.684z"/><path style="fill:#E6A441;" d="M413.873,272.592l-3.545-46.073c-99.301,42.771-209.864,42.923-308.68,0.366l-3.541,46.052       C198.524,319.664,313.272,319.33,413.873,272.592z"/><path style="fill:#E6A441;" d="M473.979,257.266c-5.228,3.438-10.676,6.827-16.215,10.111       c-13.449,43.118-36.26,81.12-66.185,110.246c42.046-16.408,74.862-37.674,96.814-54.476       C502.548,312.302,511,295.188,511,277.369v-0.117C511,258.215,489.893,246.815,473.979,257.266z"/></g></g></g></g></g><g id="Layer_1"/></svg>